<svg width="32" height="32" viewBox="0 0 32 32" fill="none" xmlns="http://www.w3.org/2000/svg">
<path d="M21.1968 20.075C21.9531 19.6688 22.8187 19.4375 23.7406 19.4375H23.7437C23.8375 19.4375 23.8812 19.325 23.8125 19.2625C22.8537 18.4021 21.7586 17.7072 20.5718 17.2062C20.5593 17.2 20.5468 17.1969 20.5343 17.1906C22.475 15.7812 23.7375 13.4906 23.7375 10.9062C23.7375 6.625 20.275 3.15625 16.0031 3.15625C11.7312 3.15625 8.27183 6.625 8.27183 10.9062C8.27183 13.4906 9.53433 15.7812 11.4781 17.1906C11.4656 17.1969 11.4531 17.2 11.4406 17.2062C10.0437 17.7969 8.79058 18.6438 7.71246 19.725C6.64056 20.795 5.78719 22.0633 5.19996 23.4594C4.62218 24.8264 4.31037 26.2911 4.28121 27.775C4.28037 27.8084 4.28622 27.8415 4.29841 27.8726C4.3106 27.9036 4.32888 27.932 4.35218 27.9558C4.37548 27.9797 4.40332 27.9987 4.43407 28.0116C4.46482 28.0246 4.49784 28.0313 4.53121 28.0312H6.40308C6.53746 28.0312 6.64996 27.9219 6.65308 27.7875C6.71558 25.375 7.68121 23.1156 9.39058 21.4031C11.1562 19.6313 13.5062 18.6562 16.0062 18.6562C17.7781 18.6562 19.4781 19.1469 20.9437 20.0656C20.9814 20.0893 21.0246 20.1026 21.069 20.1043C21.1134 20.1059 21.1575 20.0958 21.1968 20.075ZM16.0062 16.2812C14.575 16.2812 13.2281 15.7219 12.2125 14.7063C11.7128 14.2078 11.3166 13.6155 11.0468 12.9633C10.7771 12.3111 10.639 11.612 10.6406 10.9062C10.6406 9.47187 11.2 8.12187 12.2125 7.10625C13.225 6.09062 14.5718 5.53125 16.0062 5.53125C17.4406 5.53125 18.7843 6.09062 19.8 7.10625C20.2997 7.60466 20.6958 8.19701 20.9656 8.84919C21.2354 9.50137 21.3734 10.2005 21.3718 10.9062C21.3718 12.3406 20.8125 13.6906 19.8 14.7063C18.7843 15.7219 17.4375 16.2812 16.0062 16.2812Z" fill="#424242"/>
<line x1="20.9658" y1="24.3793" x2="29.7934" y2="24.3793" stroke="#FAAF3A" stroke-width="2"/>
<line x1="25.2754" y1="19.8621" x2="25.2754" y2="28.6896" stroke="#FAAF3A" stroke-width="2"/>
</svg>
