<svg width="29" height="23" viewBox="0 0 29 23" fill="none" xmlns="http://www.w3.org/2000/svg">
<path d="M20.5416 2.44535C23.6668 2.44535 26.2083 4.61621 26.2083 7.28562C26.2083 12.9354 18.3557 18.1048 14.1666 20.6242C9.97755 18.1048 2.12499 12.9354 2.12499 7.28562C2.12499 4.61621 4.66649 2.44535 7.79164 2.44535C8.70158 2.4471 9.5977 2.63553 10.4046 2.99478C11.2115 3.35403 11.9056 3.87359 12.4284 4.50973L14.1666 6.62371L15.9049 4.51094C16.4274 3.87443 17.1213 3.35453 17.9283 2.99505C18.7352 2.63556 19.6315 2.44704 20.5416 2.44535ZM20.5416 0.630249C19.2902 0.630093 18.0573 0.887852 16.9475 1.38164C15.8377 1.87543 14.8837 2.59068 14.1666 3.46665C13.4495 2.59068 12.4956 1.87543 11.3858 1.38164C10.2759 0.887852 9.04301 0.630093 7.79164 0.630249C5.72517 0.630249 3.74334 1.33144 2.28212 2.57956C0.820903 3.82769 0 5.52051 0 7.28562C0 14.206 9.20831 19.9163 14.1666 22.835C19.1249 19.9163 28.3333 14.206 28.3333 7.28562C28.3333 6.41162 28.1317 5.54619 27.7401 4.73872C27.3486 3.93125 26.7747 3.19757 26.0511 2.57956C25.3276 1.96155 24.4687 1.47132 23.5233 1.13686C22.578 0.802395 21.5648 0.630249 20.5416 0.630249Z" fill="black"/>
</svg>
